<svg id="Calque_1" data-name="Calque 1" xmlns="http://www.w3.org/2000/svg" viewBox="0 0 511.43 183.7"><title>logoSVG</title><path d="M152.91,208.2c-7.8,2.9-10.8,5-18.7,13.6-10.4,11.3-19.8,33.8-19.5,46.8.1,1.8-.3,3.7-.8,4.2-.8.8-32.9,4.8-71,8.9-8.9,1-15.4,4.1-19.4,9.1s-4.4,7.4-4.5,25.8c-.1,17.6.5,20,7.7,27.8,5.6,6.1,11.7,8.9,16.1,7.5,1.8-.6,19.4-3.3,39.2-6.1s37-5.2,38.3-5.4c1.8-.3,2.6.3,3.3,2.2,2.1,5.5,16.1,25,22.6,31.6,12.5,12.7,32.5,18.9,44.1,13.6,5.5-2.5,14.4-9.4,20.3-15.6,4.3-4.7,11.9-15.6,11.9-17.2,0-.4,3.5-1.5,7.8-2.4s19.4-4.4,33.7-7.8,28.9-6.7,32.5-7.5c18.9-4.1,36.2-8.5,38.7-9.8,7-3.7,16.5-14.8,21.7-25.3l2.9-5.9,41.6-6.9c70-11.5,108.4-20.4,121.9-28.2,6.6-3.9,8.8-11.2,5.8-19.4-1.6-4.4-6.6-7.4-16.6-9.7-12-2.9-64.4-2.3-114.5,1.1-21.4,1.5-39.8,2.9-40.8,3.2-1.3.4-3.7-1.4-8.5-6.3-6.8-7-17.1-13.3-21.7-13.3a18.06,18.06,0,0,1-5.7-1.4c-4.4-1.9-10.5-1.7-72.4,2.6l-48,3.2-4-3.1C182.81,206.8,166.41,203.2,152.91,208.2Zm29.6,10.6a74.38,74.38,0,0,1,11.4,7.3l4.8,4,47.2-3.3c53.4-3.7,73.6-4.5,73.6-3.1,0,.5,2.4,1.2,5.3,1.6a30.26,30.26,0,0,1,9.2,3.1c5.3,3,12.3,10,14.5,14.4,5.3,10.7,8.4,26.9,6.8,36.1-1,6.2-3.7,15-4.8,16.2-1.3,1.5-2.2-5.2-1.6-11.7a36.2,36.2,0,0,0-.3-9.6c-.5-1.9-.9-2.7-1-1.6-.2,3.2-9.1,29.1-11.2,32.6-1.4,2.3-2.4,2.9-3.1,2.2s-2.5,0-5.8,2.4c-4.7,3.4-8,4.4-8,2.4s-3.1-2.3-4.9-.6c-1.6,1.4-2.3,1.5-4.5.4-2.5-1.1-2.9-.9-5.2,1.9-2,2.6-3.4,3.3-8,3.9-3.9.4-5.8.3-6.3-.5s-1.5-.9-3.5-.1c-4,1.5-6.7,1.2-8.2-.8-1.2-1.5-1.5-1.6-3.8-.2a74.74,74.74,0,0,0-6.2,4.5c-2.5,2-3.9,2.6-4.1,1.8s-1.9-.3-4.9,1.8c-9,6.2-15.8,7.5-19.5,3.8a4.93,4.93,0,0,0-4.4-1.6c-1.5.2-2.6-.1-3-1.1-.3-.8-.2-7.6.1-15.1.7-15.2,1-13.9-7.8-35.6-4.6-11.2-8.5-19.5-9.3-19.5-.2,0,.8,2.8,2.1,6.1a139.52,139.52,0,0,1,4.9,15.3c7,26.4,5.2,48.3-5.9,71-3,6.1-6.7,12.6-8.3,14.5l-2.9,3.4-2.9-2.5c-3.6-3.2-3.6-4.5,1-26.8,8.8-42.7,4.7-66.4-16.2-93.8-3.1-4-7-8.4-8.7-9.6-4.4-3.2-12.8-6.3-21.9-8-4.3-.9-8.2-1.8-8.8-2.2s-2.5.7-4.2,2.2-1.3.8,1.1-1.7c5.7-6.1,11.1-7.9,22.2-7.5C174.91,215.4,176.91,215.9,182.51,218.8Zm329,21.9c5.8,1.5,10,3.2,10,4,0,2.8-76.8,21.1-111,26.6-8.4,1.3-40.1,4.5-45.5,4.5-1.8,0-2-.7-2-6.3-.1-6.9-2.5-13.4-7.4-19.6l-3-3.8,9.7-1.2c9.2-1.1,61.7-4.7,78.7-5.5C457.81,238.7,507.11,239.6,511.51,240.7Zm-338.1,8.1c7.6,3.8,8.1,4.2,13.4,12.7,3.1,4.9,6.1,10.9,6.6,13.3,1.4,5.9,1.3,14.6-.2,19-1,2.8-1.8,3.5-4.2,3.8a10.06,10.06,0,0,1-4.3-.6c-.7-.5-2.2-4.7-3.2-9.3-2.9-12.9-5.4-19.1-11.2-27.4-8.5-12.4-8.4-12.1-6.9-13.9a5.3,5.3,0,0,1,1.7-1.6C165.41,244.8,169.11,246.6,173.41,248.8ZM152,284.5c5,6.6,6.5,10.5,6.5,17.5,0,7.6-3.2,15.3-7.2,17.4-1.5.8-7.4,2.1-13.1,2.9-16.3,2.2-52.4,5.8-53.9,5.2-.7-.2,2.9-.8,8-1.2s9.5-1.1,9.8-1.6,1.1-.6,1.8-.3c1.5.6,37.1-3.2,43.1-4.6,6.8-1.5,10.5-8,10.5-18,0-6.2-.9-9-2.9-9-1.4,0-1.4-.2-.1-1s1.2-1,.1-1c-.8,0-1.1-.3-.8-.6s-.8-2.7-2.6-5.1c-2.9-4.2-3.4-4.4-6.7-3.9a48.73,48.73,0,0,1-5.4.6c-1.8,0-1.8.1-.3,1.8,3.9,4.3,6.3,17.2,3.9,20.8-.8,1.4-4.3,2.1-13.7,2.9-3.8.3-14.8,1.5-24.2,2.6s-17.9,1.9-18.5,1.9c-.9,0-.8.4.2,1,.8.5,1,1,.4,1a3.9,3.9,0,0,1-2-.9c-.5-.5-4.1-.5-8.4.1a75.45,75.45,0,0,1-13.2.4l-5.7-.6.6,3.8a12.65,12.65,0,0,0,1.2,4.2c.8.7.8,6,0,6-.4,0-1-2.1-1.3-4.8-1.2-8.3-1.8-10.3-2.9-9.9a7.26,7.26,0,0,1-3.4-.4c-2.2-.8-2.3-.6-2.4,4.9-.1,6-.1,6.1-1.8,14.3-.6,2.8-.9,5.4-.7,5.6.6.7,2.6-3.3,2.1-4.1-.3-.3-.2-.4.2-.1s1.5-.7,2.5-2.2,1.8-2.3,1.8-1.7c0,1.6-5.8,9.4-7,9.4-.6,0-2.3,1.4-3.8,3.1-2.6,2.9-3.1,3.1-5.3,1.9-7.6-4-11.7-12.4-12.6-26.1-.7-10.5,1.1-17,6.2-21.9,3.1-3,4-3.3,12.6-4.1,5.1-.5,9.9-1.1,10.8-1.3s16.2-2.1,34.1-4.1,33-3.7,33.6-4a2.46,2.46,0,0,1,2.2.7c.7.7,2.6.7,6.2-.2,2.8-.7,5.3-1,5.6-.7s1.7.1,3.2-.3C145.81,278.8,148.21,279.5,152,284.5Z" transform="translate(-19 -206)"/><path d="M506.1,245.5c-5.7,2.2-12.8,3.7-24,5-17.4,2.1-65.7,9.1-86.3,12.5-13.3,2.2-24.5,4-24.7,4s-.5-2.2-.5-4.9c0-6.9-4.5-15.5-8.4-15.9-1.5-.2-2.6,0-2.3.5s-.8.8-2.6.6c-2.7-.4-3-.2-1.7.9a39.85,39.85,0,0,1,4.9,7.7c2.8,5.3,3.4,7.7,3.5,12.8l.1,6.3h3.6c2.7,0,3.9-.6,4.8-2.3.6-1.2.9-1.4.7-.5-.5,1.5.2,1.8,4.3,1.8,2.6,0,5-.3,5.4-.6s4.1-.7,8.4-.9c8.8-.3,30.3-3.4,30.3-4.4,0-.3,1.7-.7,3.8-.8,6.6-.2,50.6-10.4,52.6-12.1,1.1-1,1.6-1.1,1.2-.5s-.3,1.3.2,1.3c2,0,33.5-8.1,36.7-9.4,3.8-1.6,4.8-3.2,1.5-2.3-1.1.3-1.8.1-1.4-.4C517.1,242.4,512.4,243.1,506.1,245.5Z" transform="translate(-19 -206)"/></svg>